<svg width="1967.999" height="767.996" viewBox="0 0 475 548" fill="none" xmlns="http://www.w3.org/2000/svg">
<mask id="path-1-inside-1_364_17" fill="white">
<path fill-rule="evenodd" clip-rule="evenodd" d="M0.0450001 548C0.0450001 418.291 0 288.224 0 158.643C0 156.336 1.19209e-07 154.029 0.13 151.595C0.523 136.451 8.309 117.76 18.566 105.85C27.336 95.6696 38.107 89.5936 45.334 87.3016C49.051 93.2016 52.859 99.2716 56.575 105.302C47.851 107.824 24.209 118.218 21.533 151.085C21.276 155.956 21.02 160.955 20.765 165.953C20.165 165.953 20.942 471.333 20.942 527.112C83.874 527.112 146.742 526.996 209.673 527.124C209.682 526.776 209.816 374.615 209.559 374.615C197.184 371.787 185.386 367.415 175.081 359.747C159.563 348.198 149.863 331.875 143.68 313.859C137.721 296.5 136.208 279.482 135.222 261.437C134.866 254.084 135.051 246.715 135.774 239.39C147.427 245.454 157.605 256.62 165.474 266.819C170.722 273.619 174.646 281.355 178.719 288.919C180.264 288.964 181.45 289.003 182.906 288.95C183.238 282.035 184.36 275.181 186.25 268.522C188.464 260.227 191.902 252.308 196.45 245.027C203.606 233.9 204.05 234.261 206.869 230.927C209.878 235.761 212.329 240.921 214.175 246.308C219.882 262.861 222.988 279.762 225.326 297.063C228.077 317.419 229.126 337.584 230.404 358.051C230.343 421.24 230.393 484.741 230.393 547.93C153.618 547.93 76.8363 547.952 0.0469999 547.996L0.0450001 548Z"/>
<path fill-rule="evenodd" clip-rule="evenodd" d="M243.772 547.934C243.644 485.387 243.644 422.548 243.644 360.001C244.489 342.789 245.226 325.59 247.361 308.475C250.661 282.046 253.961 254.588 267.099 230.932C271.534 235.728 275.405 241.018 278.634 246.697C284.804 257.412 288.892 269.198 290.682 281.433C290.989 283.72 291.118 286.533 291.245 288.969H295.603C298.679 283.457 301.324 277.369 305.003 272.169C312.672 261.419 321.688 251.697 331.83 243.24C333.625 241.959 335.42 240.675 337.342 239.393C337.647 239.405 337.952 239.362 338.242 239.266C338.842 246.236 339.01 253.166 339.01 260.158C338.317 283.727 335.271 309.794 323.375 330.523C309.748 354.266 290.575 369.715 264.448 374.613C264.232 425.154 264.391 476.25 264.421 527.155C266.521 527.124 438.866 527.137 453.338 527.137V459.207H453.723V174.022H453.338C453.211 166.845 453.082 159.539 452.827 152.234C450.369 127.162 438.984 113.149 417.827 105.458C419.927 101.858 426.564 90.8856 428.816 87.1206C456.21 96.6966 471.691 124.021 473.97 151.978C473.97 283.866 474.07 415.858 474.27 547.954C397.369 547.954 320.535 547.947 243.77 547.933L243.772 547.934Z"/>
<path fill-rule="evenodd" clip-rule="evenodd" d="M183.371 152.838C170.714 132.7 154.166 115.599 138.808 98.5316C145.24 84.7616 149.513 44.1406 151.24 16.5026C160.305 49.6026 182.526 75.0546 205.84 99.1726C203.259 110.949 189.81 143.941 183.371 152.838Z"/>
<path fill-rule="evenodd" clip-rule="evenodd" d="M290.519 152.761C282.66 136.417 271.107 117.115 268.256 99.0436C291.027 76.2726 313.579 48.2596 322.73 16.8846C324.213 44.1186 326.315 72.6006 335.289 98.5296C319.451 115.832 304.509 133.932 290.519 152.76V152.761Z"/>
<path fill-rule="evenodd" clip-rule="evenodd" d="M122.275 258.1C122.659 263.481 123.043 268.994 123.556 274.5C115.436 258.667 110.965 240.6 108.305 223.1C107.239 216.1 106.77 209 105.739 201.965C103.039 183.528 99.696 165.453 92.794 148.265C78.839 113.49 57.704 79.3226 27.685 56.2326C19.995 51.1076 19.861 51.2396 19.606 50.7326C34.626 52.1086 51.731 57.4816 66.137 63.1596C110.88 83.4726 142.28 117.906 171.108 156.083C185.262 174.827 195.758 199.406 202.46 223.039C187.375 217.42 171.596 216.348 159.06 228.884C155.473 233.628 153.805 236.574 153.421 236.705C145.774 231.241 133.721 222.092 125.095 218.505C123.25 231.627 122.309 244.86 122.276 258.112L122.275 258.1Z"/>
<path fill-rule="evenodd" clip-rule="evenodd" d="M352.331 258.104C352.331 249.736 351.745 241.451 351.05 233.11C350.539 228.24 349.896 223.369 349.25 218.498C339.05 223.598 330.002 230.078 320.813 236.764C314.52 227.272 302.465 211.222 271.835 223.482C278.442 198.511 289.657 174.996 304.903 154.146C342.403 102.854 388.588 58.2856 454.737 50.5946C405.35 83.9946 376.316 146.839 369.07 200.465C367.507 212.027 365.87 224.079 363.863 235.545C360.955 248.459 357.232 264.437 350.382 275.851C351.409 270.437 351.648 263.551 352.326 258.103L352.331 258.104Z"/>
<path fill-rule="evenodd" clip-rule="evenodd" d="M217.592 229.124C214.516 221.306 211.349 212.732 208.273 204.784C205.073 197.35 201.864 189.917 198.533 182.354C196.538 178.367 191.781 168.7 189.816 164.554C214.579 118.454 226.548 73.2096 237.239 23.0386C247.331 72.4866 261.374 120.528 284.585 165.26C274.096 186.655 265.647 206.784 256.985 229.132C251.644 217.245 223.574 215.68 217.592 229.126V229.124Z"/>
<path fill-rule="evenodd" clip-rule="evenodd" d="M75.365 48.4156C67.445 33.2826 85.007 20.9156 97.098 17.4496C120.998 10.5886 141.998 20.1836 136.498 53.6716C134.62 65.8223 131.7 77.789 127.772 89.4396C108.572 69.4606 82.638 62.3206 75.361 48.4156H75.365Z"/>
<path fill-rule="evenodd" clip-rule="evenodd" d="M346.995 89.6146C339.637 66.1006 324.295 22.9596 355.949 16.6296C372.249 13.3676 396.704 19.8086 401.038 39.5716C405.277 58.8936 364.73 67.4716 346.995 89.6146Z"/>
<path fill-rule="evenodd" clip-rule="evenodd" d="M209.199 85.7476C196.008 69.2966 177.456 51.7416 169.182 32.1376C160.256 10.9886 174.871 1.08661 192.915 0.503605C206.262 0.0716053 219.387 4.57461 222.109 14.6616C227.109 33.1796 214.568 65.5926 209.199 85.7476Z"/>
<path fill-rule="evenodd" clip-rule="evenodd" d="M264.924 85.4566C260.924 66.3936 244.711 25.9876 253.031 12.7836C258.876 3.50461 273.412 -1.4544 284.22 0.376601C340.136 9.8416 281.339 64.9166 264.92 85.4576L264.924 85.4566Z"/>
</mask>
<path fill-rule="evenodd" clip-rule="evenodd" d="M0.0450001 548C0.0450001 418.291 0 288.224 0 158.643C0 156.336 1.19209e-07 154.029 0.13 151.595C0.523 136.451 8.309 117.76 18.566 105.85C27.336 95.6696 38.107 89.5936 45.334 87.3016C49.051 93.2016 52.859 99.2716 56.575 105.302C47.851 107.824 24.209 118.218 21.533 151.085C21.276 155.956 21.02 160.955 20.765 165.953C20.165 165.953 20.942 471.333 20.942 527.112C83.874 527.112 146.742 526.996 209.673 527.124C209.682 526.776 209.816 374.615 209.559 374.615C197.184 371.787 185.386 367.415 175.081 359.747C159.563 348.198 149.863 331.875 143.68 313.859C137.721 296.5 136.208 279.482 135.222 261.437C134.866 254.084 135.051 246.715 135.774 239.39C147.427 245.454 157.605 256.62 165.474 266.819C170.722 273.619 174.646 281.355 178.719 288.919C180.264 288.964 181.45 289.003 182.906 288.95C183.238 282.035 184.36 275.181 186.25 268.522C188.464 260.227 191.902 252.308 196.45 245.027C203.606 233.9 204.05 234.261 206.869 230.927C209.878 235.761 212.329 240.921 214.175 246.308C219.882 262.861 222.988 279.762 225.326 297.063C228.077 317.419 229.126 337.584 230.404 358.051C230.343 421.24 230.393 484.741 230.393 547.93C153.618 547.93 76.8363 547.952 0.0469999 547.996L0.0450001 548Z" stroke="black" stroke-width="4" mask="url(#path-1-inside-1_364_17)"/>
<path fill-rule="evenodd" clip-rule="evenodd" d="M243.772 547.934C243.644 485.387 243.644 422.548 243.644 360.001C244.489 342.789 245.226 325.59 247.361 308.475C250.661 282.046 253.961 254.588 267.099 230.932C271.534 235.728 275.405 241.018 278.634 246.697C284.804 257.412 288.892 269.198 290.682 281.433C290.989 283.72 291.118 286.533 291.245 288.969H295.603C298.679 283.457 301.324 277.369 305.003 272.169C312.672 261.419 321.688 251.697 331.83 243.24C333.625 241.959 335.42 240.675 337.342 239.393C337.647 239.405 337.952 239.362 338.242 239.266C338.842 246.236 339.01 253.166 339.01 260.158C338.317 283.727 335.271 309.794 323.375 330.523C309.748 354.266 290.575 369.715 264.448 374.613C264.232 425.154 264.391 476.25 264.421 527.155C266.521 527.124 438.866 527.137 453.338 527.137V459.207H453.723V174.022H453.338C453.211 166.845 453.082 159.539 452.827 152.234C450.369 127.162 438.984 113.149 417.827 105.458C419.927 101.858 426.564 90.8856 428.816 87.1206C456.21 96.6966 471.691 124.021 473.97 151.978C473.97 283.866 474.07 415.858 474.27 547.954C397.369 547.954 320.535 547.947 243.77 547.933L243.772 547.934Z" stroke="black" stroke-width="4" mask="url(#path-1-inside-1_364_17)"/>
<path fill-rule="evenodd" clip-rule="evenodd" d="M183.371 152.838C170.714 132.7 154.166 115.599 138.808 98.5316C145.24 84.7616 149.513 44.1406 151.24 16.5026C160.305 49.6026 182.526 75.0546 205.84 99.1726C203.259 110.949 189.81 143.941 183.371 152.838Z" stroke="black" stroke-width="4" mask="url(#path-1-inside-1_364_17)"/>
<path fill-rule="evenodd" clip-rule="evenodd" d="M290.519 152.761C282.66 136.417 271.107 117.115 268.256 99.0436C291.027 76.2726 313.579 48.2596 322.73 16.8846C324.213 44.1186 326.315 72.6006 335.289 98.5296C319.451 115.832 304.509 133.932 290.519 152.76V152.761Z" stroke="black" stroke-width="4" mask="url(#path-1-inside-1_364_17)"/>
<path fill-rule="evenodd" clip-rule="evenodd" d="M122.275 258.1C122.659 263.481 123.043 268.994 123.556 274.5C115.436 258.667 110.965 240.6 108.305 223.1C107.239 216.1 106.77 209 105.739 201.965C103.039 183.528 99.696 165.453 92.794 148.265C78.839 113.49 57.704 79.3226 27.685 56.2326C19.995 51.1076 19.861 51.2396 19.606 50.7326C34.626 52.1086 51.731 57.4816 66.137 63.1596C110.88 83.4726 142.28 117.906 171.108 156.083C185.262 174.827 195.758 199.406 202.46 223.039C187.375 217.42 171.596 216.348 159.06 228.884C155.473 233.628 153.805 236.574 153.421 236.705C145.774 231.241 133.721 222.092 125.095 218.505C123.25 231.627 122.309 244.86 122.276 258.112L122.275 258.1Z" stroke="black" stroke-width="4" mask="url(#path-1-inside-1_364_17)"/>
<path fill-rule="evenodd" clip-rule="evenodd" d="M352.331 258.104C352.331 249.736 351.745 241.451 351.05 233.11C350.539 228.24 349.896 223.369 349.25 218.498C339.05 223.598 330.002 230.078 320.813 236.764C314.52 227.272 302.465 211.222 271.835 223.482C278.442 198.511 289.657 174.996 304.903 154.146C342.403 102.854 388.588 58.2856 454.737 50.5946C405.35 83.9946 376.316 146.839 369.07 200.465C367.507 212.027 365.87 224.079 363.863 235.545C360.955 248.459 357.232 264.437 350.382 275.851C351.409 270.437 351.648 263.551 352.326 258.103L352.331 258.104Z" stroke="black" stroke-width="4" mask="url(#path-1-inside-1_364_17)"/>
<path fill-rule="evenodd" clip-rule="evenodd" d="M217.592 229.124C214.516 221.306 211.349 212.732 208.273 204.784C205.073 197.35 201.864 189.917 198.533 182.354C196.538 178.367 191.781 168.7 189.816 164.554C214.579 118.454 226.548 73.2096 237.239 23.0386C247.331 72.4866 261.374 120.528 284.585 165.26C274.096 186.655 265.647 206.784 256.985 229.132C251.644 217.245 223.574 215.68 217.592 229.126V229.124Z" stroke="black" stroke-width="4" mask="url(#path-1-inside-1_364_17)"/>
<path fill-rule="evenodd" clip-rule="evenodd" d="M75.365 48.4156C67.445 33.2826 85.007 20.9156 97.098 17.4496C120.998 10.5886 141.998 20.1836 136.498 53.6716C134.62 65.8223 131.7 77.789 127.772 89.4396C108.572 69.4606 82.638 62.3206 75.361 48.4156H75.365Z" stroke="black" stroke-width="4" mask="url(#path-1-inside-1_364_17)"/>
<path fill-rule="evenodd" clip-rule="evenodd" d="M346.995 89.6146C339.637 66.1006 324.295 22.9596 355.949 16.6296C372.249 13.3676 396.704 19.8086 401.038 39.5716C405.277 58.8936 364.73 67.4716 346.995 89.6146Z" stroke="black" stroke-width="4" mask="url(#path-1-inside-1_364_17)"/>
<path fill-rule="evenodd" clip-rule="evenodd" d="M209.199 85.7476C196.008 69.2966 177.456 51.7416 169.182 32.1376C160.256 10.9886 174.871 1.08661 192.915 0.503605C206.262 0.0716053 219.387 4.57461 222.109 14.6616C227.109 33.1796 214.568 65.5926 209.199 85.7476Z" stroke="black" stroke-width="4" mask="url(#path-1-inside-1_364_17)"/>
<path fill-rule="evenodd" clip-rule="evenodd" d="M264.924 85.4566C260.924 66.3936 244.711 25.9876 253.031 12.7836C258.876 3.50461 273.412 -1.4544 284.22 0.376601C340.136 9.8416 281.339 64.9166 264.92 85.4576L264.924 85.4566Z" stroke="black" stroke-width="4" mask="url(#path-1-inside-1_364_17)"/>
</svg>
