<svg width="105" height="122" viewBox="0 0 105 122" fill="none" xmlns="http://www.w3.org/2000/svg">
    <path fill-rule="evenodd" clip-rule="evenodd" d="M0.220679 121.058C0.220679 92.4054 0.220679 63.6714 0.220679 35.0454C0.220679 34.5374 0.220679 34.0249 0.247638 33.4899C0.510165 29.7773 1.93441 26.2417 4.31835 23.3845C5.89578 21.5258 7.93307 20.1137 10.2267 19.2893C11.0489 20.5929 11.8891 21.9326 12.7069 23.2632C10.5188 23.9223 8.59385 25.2542 7.20505 27.0697C5.81626 28.8853 5.0342 31.0923 4.96984 33.3776C4.91143 34.452 4.85751 35.5578 4.7991 36.6637C4.6688 36.6637 4.83954 104.125 4.83954 116.446C18.7366 116.446 32.6156 116.419 46.5126 116.446C46.5126 116.37 46.5441 82.7539 46.4857 82.7539C43.7464 82.2044 41.1533 81.0848 38.8744 79.4679C35.5833 76.8763 33.1639 73.3389 31.9417 69.331C30.7748 65.5788 30.1455 61.68 30.0725 57.7511C29.9922 56.1261 30.0312 54.4974 30.1894 52.8782C32.7708 54.4214 35.0032 56.4851 36.7447 58.9379C37.8506 60.483 38.8289 62.1157 39.6697 63.8198C40.0112 63.8198 40.2718 63.8198 40.5953 63.8198C40.6695 62.2982 40.9167 60.7901 41.3321 59.3245C41.8191 57.4918 42.5762 55.7419 43.5787 54.1324C44.2244 53.0098 44.9963 51.9645 45.8791 51.0171C46.5435 52.0853 47.0846 53.2254 47.4921 54.4156C48.6829 58.0616 49.5077 61.8172 49.9543 65.6269C50.5609 70.1222 50.7945 74.577 51.0776 79.1128C51.0776 93.0707 51.0776 107.101 51.0776 121.058C34.1268 121.058 17.1775 121.058 0.220679 121.058Z" fill="#A36943"/>
    <path fill-rule="evenodd" clip-rule="evenodd" d="M54.034 121.04C54.0071 107.222 54.0071 93.3404 54.0071 79.5219C54.1958 75.7188 54.3575 71.9203 54.8293 68.1398C55.1749 62.2031 56.6543 56.3878 59.1876 51.0082C60.1671 52.0682 61.0218 53.2371 61.7351 54.4921C63.1059 56.8634 64.0145 59.4733 64.413 62.1835C64.4804 62.687 64.5073 63.3118 64.5388 63.8467H65.5003C66.1269 62.5736 66.8198 61.3342 67.5761 60.1337C69.2689 57.7585 71.2591 55.6101 73.4979 53.7413C73.8933 53.4581 74.2887 53.1749 74.7155 52.8917C74.7825 52.8946 74.8495 52.8855 74.9133 52.8648C75.0481 54.4021 75.084 55.935 75.084 57.4814C75.1954 62.8648 74.0119 68.1961 71.6333 73.0262C70.3416 75.5319 68.4973 77.7109 66.24 79.3985C63.9826 81.0861 61.3713 82.2381 58.6035 82.7675C58.554 93.9338 58.6035 105.221 58.6035 116.482C59.0528 116.482 97.1224 116.482 100.317 116.482V101.477H100.402V38.4438H100.317C100.29 36.857 100.259 35.2431 100.205 33.6293C100.179 31.3087 99.4164 29.0564 98.0273 27.1979C96.6381 25.3393 94.6942 23.9708 92.4766 23.2902C92.9259 22.4945 94.4041 20.0715 94.9029 19.2444C97.7678 20.4173 100.233 22.3935 102.002 24.9351C103.771 27.4768 104.768 30.4756 104.873 33.5709C104.873 62.7064 104.895 91.8644 104.94 121.045L54.034 121.04Z" fill="#A36943"/>
    <path fill-rule="evenodd" clip-rule="evenodd" d="M40.6986 33.7643C37.7693 29.4895 34.4772 25.4753 30.8588 21.7663C32.5152 15.862 33.4372 9.7759 33.604 3.64575C36.0049 10.6603 40.1539 16.9465 45.6589 21.9102C44.4928 26.0456 42.8334 30.0256 40.7165 33.7643H40.6986Z" fill="#A36943"/>
    <path fill-rule="evenodd" clip-rule="evenodd" d="M64.359 33.7463C62.1888 30.0325 60.5351 26.0398 59.4436 21.8787C64.8743 16.9033 69.004 10.6725 71.4715 3.7312C71.5618 9.8419 72.4947 15.9109 74.2437 21.7663C70.747 25.5886 67.4477 29.5871 64.359 33.7463Z" fill="#A36943"/>
    <path fill-rule="evenodd" clip-rule="evenodd" d="M27.206 57.0183C27.2913 58.205 27.3767 59.4233 27.489 60.6415C25.7701 57.0598 24.6341 53.2265 24.1237 49.2863C23.8901 47.74 23.7868 46.1666 23.5576 44.6157C23.0782 40.5621 22.119 36.5798 20.7 32.7527C17.7805 24.8281 12.8207 17.8156 6.32225 12.4249C4.62387 11.2921 4.59242 11.3236 4.52502 11.2112C8.05775 11.662 11.5139 12.5858 14.8006 13.9578C24.1512 18.7087 32.1309 25.7747 37.9803 34.4833C41.1518 38.9603 43.4967 43.9692 44.9041 49.2729C43.3664 48.4818 41.6234 48.1814 39.9098 48.4121C38.1962 48.6427 36.5944 49.3935 35.3204 50.5631C34.5297 51.6105 34.1612 52.2622 34.0759 52.2892C32.1215 50.7552 30.0276 49.4082 27.8215 48.266C27.4136 51.1642 27.2049 54.087 27.197 57.0138L27.206 57.0183Z" fill="black"/>
    <path fill-rule="evenodd" clip-rule="evenodd" d="M78.009 57.0183C78.009 55.1707 77.8787 53.3411 77.7259 51.4981C77.6136 50.4237 77.4698 49.3448 77.3305 48.2704C75.1247 49.4413 73.0207 50.7946 71.0402 52.3162C70.5429 51.3928 69.8629 50.5804 69.0417 49.9284C68.2204 49.2764 67.275 48.7986 66.2632 48.5239C65.2513 48.2493 64.1942 48.1836 63.1562 48.3309C62.1182 48.4782 61.121 48.8355 60.2255 49.3808C61.6844 43.8652 64.1607 38.6709 67.5267 34.0653C75.8074 22.7327 86.0022 12.8879 100.609 11.1887C95.4044 15.1622 91.0487 20.1393 87.7997 25.826C84.5507 31.5126 82.4744 37.7933 81.6933 44.2966C81.3473 46.85 80.9879 49.5112 80.5431 52.0465C79.9984 55.146 78.996 58.1472 77.5687 60.9517C77.7933 59.7559 77.8472 58.2545 78.018 57.0318L78.009 57.0183Z" fill="black"/>
    <path fill-rule="evenodd" clip-rule="evenodd" d="M48.2559 50.6171C47.5775 48.8909 46.8766 46.9939 46.1981 45.2228C45.4927 43.582 44.7828 41.9367 44.0459 40.278C43.5966 39.3789 42.5543 37.2616 42.1229 36.3446C47.1272 26.4946 50.6561 15.9618 52.5962 5.08423C54.6044 15.9922 58.1235 26.5666 63.0516 36.5019C60.7376 41.2264 58.8685 45.6768 56.959 50.6126C56.4385 49.9581 55.7771 49.4294 55.024 49.0661C54.271 48.7027 53.4457 48.5141 52.6097 48.5141C51.7737 48.5141 50.9484 48.7027 50.1954 49.0661C49.4424 49.4294 48.7809 49.9581 48.2604 50.6126L48.2559 50.6171Z" fill="black"/>
    <path fill-rule="evenodd" clip-rule="evenodd" d="M16.8539 10.6943C15.1061 7.34979 18.9836 4.62117 21.6525 3.85247C26.9319 2.33755 31.5642 4.45483 30.3511 11.8541C29.9361 14.5387 29.2912 17.1827 28.4235 19.7568C24.1821 15.3424 18.4624 13.7646 16.8539 10.6943Z" fill="black"/>
    <path fill-rule="evenodd" clip-rule="evenodd" d="M76.8273 19.7928C75.2008 14.5963 71.8176 5.06619 78.8043 3.66815C82.3987 2.9489 87.7903 4.36945 88.7608 8.73438C89.6954 13.0049 80.7452 14.9019 76.8273 19.7928Z" fill="black"/>
    <path fill-rule="evenodd" clip-rule="evenodd" d="M46.4048 18.9433C42.9559 15.3968 39.9848 11.4147 37.567 7.09813C35.5946 2.42751 38.8251 0.238301 42.8059 0.107937C45.7534 0.0135356 48.6469 1.00702 49.2534 3.25467C50.3587 7.34539 47.5865 14.4929 46.4048 18.9567V18.9433Z" fill="black"/>
    <path fill-rule="evenodd" clip-rule="evenodd" d="M58.7068 18.8803C57.8082 14.6682 54.2452 5.74497 56.0829 2.82752C56.8833 1.79869 57.9437 1.00219 59.1544 0.520158C60.3652 0.0381288 61.6826 -0.111941 62.9708 0.085417C75.3177 2.17573 62.3282 14.3445 58.7068 18.8803Z" fill="black"/>
</svg>
